<svg width="151" height="48" fill="none" xmlns="http://www.w3.org/2000/svg"><g clip-path="url(#clip0_54_24777)"><g clip-path="url(#clip1_54_24777)"><path d="M42.553 20.557h4.796v17.83h10.625v4.034H42.553V20.557zm23.623 3.585h-4.34v-3.578h4.34v3.578zm-4.34 2.457h4.34V42.42h-4.34V26.6zm9.247-6.035h4.319v7.952h.076c.261-.392.578-.744.941-1.045a5.41 5.41 0 011.19-.734 6.49 6.49 0 011.385-.422 7.24 7.24 0 011.447-.145 6.07 6.07 0 012.353.484 5.972 5.972 0 012.076 1.502 7.612 7.612 0 011.51 2.596 12.417 12.417 0 010 7.51 7.716 7.716 0 01-1.517 2.602 5.993 5.993 0 01-2.076 1.509 6.228 6.228 0 01-2.353.484 9.584 9.584 0 01-1.64-.138 5.848 5.848 0 01-1.454-.43 4.846 4.846 0 01-1.205-.76c-.358-.32-.657-.7-.886-1.122h-.076v2.014h-4.111l.02-21.857zm11.558 13.96c0-.647-.071-1.293-.214-1.924a5.025 5.025 0 00-.692-1.62 3.46 3.46 0 00-1.156-1.121 3.462 3.462 0 00-3.315 0c-.466.278-.86.663-1.15 1.121a5.012 5.012 0 00-.692 1.62 8.305 8.305 0 00-.221 1.924c0 .639.073 1.275.222 1.896a5.04 5.04 0 00.692 1.613c.29.459.683.843 1.149 1.121a3.461 3.461 0 003.315 0 3.46 3.46 0 001.156-1.12 5.046 5.046 0 00.692-1.614 8.517 8.517 0 00.214-1.896zm8.576-7.932h4.112v2.942h.055c.2-.504.48-.971.83-1.384a5.78 5.78 0 012.644-1.751 5.059 5.059 0 011.565-.25c.163-.01.328-.01.491 0 .158.023.314.062.464.118v4.104a4.562 4.562 0 00-.741-.11c-.29 0-.567-.042-.823-.042a4.52 4.52 0 00-2.014.408c-.522.25-.976.623-1.322 1.087a4.61 4.61 0 00-.693 1.62 8.572 8.572 0 00-.221 1.972v7.13h-4.319l-.028-15.844zm13.206 4.873a5.077 5.077 0 01.762-2.554 5.209 5.209 0 011.716-1.627 7.413 7.413 0 012.326-.858 13.19 13.19 0 012.616-.256c.526 0 1.059 0 1.606.07a10.6 10.6 0 011.585.248c.498.124.982.296 1.447.512.437.208.837.486 1.183.824.347.342.621.752.803 1.204.209.521.31 1.08.298 1.64v8.224c0 .36 0 .692.034 1.072.035.381.049.693.097.997.036.285.094.568.173.844.055.216.139.423.249.616h-4.395a9.195 9.195 0 01-.2-.754 5.854 5.854 0 01-.111-.768c-.339.353-.723.66-1.142.913-.41.25-.846.452-1.301.602a8.018 8.018 0 01-1.385.34 10.35 10.35 0 01-1.439.104 7.663 7.663 0 01-2.077-.284 4.73 4.73 0 01-1.702-.88 4.066 4.066 0 01-1.143-1.48 5.007 5.007 0 01-.415-2.077 4.746 4.746 0 01.457-2.215 3.991 3.991 0 011.163-1.398 5.382 5.382 0 011.709-.789 15.433 15.433 0 011.98-.401c.692-.097 1.301-.18 1.917-.243a10.885 10.885 0 001.641-.283 2.932 2.932 0 001.142-.54 1.25 1.25 0 00.422-1.025 2.459 2.459 0 00-.222-1.114 1.66 1.66 0 00-.602-.65 2.503 2.503 0 00-.9-.298 7.604 7.604 0 00-1.079-.076 3.36 3.36 0 00-2.001.553 2.37 2.37 0 00-.872 1.841l-4.34-.034zm10.009 3.211a1.886 1.886 0 01-.692.381c-.291.101-.59.18-.893.235-.325.056-.658.111-1.004.146-.346.034-.692.09-1.031.152a8.281 8.281 0 00-.969.263c-.29.097-.565.234-.817.408a1.8 1.8 0 00-.567.658 2.187 2.187 0 00-.208 1.004c-.014.347.06.692.215 1.003.138.252.341.462.588.61.262.155.551.263.851.318a5.92 5.92 0 001.011.09c.487.01.973-.058 1.439-.201.355-.118.686-.298.976-.533a2.62 2.62 0 00.603-.734c.14-.257.251-.528.332-.81a4.08 4.08 0 00.131-.768v-.602l.035-1.62zm9.226-8.084h4.118v2.942h.056c.199-.504.48-.971.83-1.385a5.701 5.701 0 012.644-1.744 5.062 5.062 0 011.565-.249c.163-.01.327-.01.491 0 .158.024.313.063.464.118v4.097a4.567 4.567 0 00-.741-.11c-.291 0-.567-.042-.823-.042a4.526 4.526 0 00-2.015.408 3.532 3.532 0 00-1.322 1.087 4.63 4.63 0 00-.692 1.62 8.559 8.559 0 00-.221 1.972v7.13h-4.326l-.028-15.844zm21.18 17.823a7.068 7.068 0 01-.838 1.633 4.14 4.14 0 01-1.121 1.114 4.6 4.6 0 01-1.502.637 8.897 8.897 0 01-1.98.201c-.443 0-.886 0-1.322-.042l-1.301-.124v-3.572c.422 0 .838.07 1.26.111a8.7 8.7 0 001.273.042c.336-.03.658-.152.928-.353.237-.184.427-.421.554-.692a2.3 2.3 0 00.138-.956 2.648 2.648 0 00-.18-.976l-5.537-14.846h4.63l3.579 10.839h.055l3.461-10.839h4.492l-6.589 17.823zM26.523 38.947H3.46V3.46h23.062v35.486zM27.942 0H2.049A2.076 2.076 0 00-.028 2.076v38.29a2.076 2.076 0 002.077 2.076h25.893a2.076 2.076 0 002.041-2.076V2.049A2.076 2.076 0 0027.942 0z" fill="#0D9D00"/><path d="M16.944 15.49H6.499a.491.491 0 00-.491.492v1.785c0 .272.22.492.491.492h10.445c.271 0 .491-.22.491-.492v-1.785a.492.492 0 00-.491-.492zm0 4.264H6.499a.491.491 0 00-.491.491v1.786c0 .271.22.491.491.491h10.445c.271 0 .491-.22.491-.491v-1.786a.491.491 0 00-.491-.491zm2.611-4.274l-1.671.63a.491.491 0 00-.287.634l3.685 9.773c.096.253.38.382.633.286l1.671-.63a.491.491 0 00.287-.633l-3.685-9.773a.491.491 0 00-.633-.287zm-2.611 8.69H6.499a.491.491 0 00-.491.491v1.786c0 .271.22.491.491.491h10.445c.271 0 .491-.22.491-.491V24.66a.491.491 0 00-.491-.491z" fill="#0D9D00"/><path d="M55.067.194h-3.219l-3.204 9.967h-.042L45.446.194h-3.212l4.603 14.182h3.516L55.067.194zm10.257 0V2.27a3.502 3.502 0 012.956 2.146l.103.304 3.364 9.621h2.409l3.46-10.05h.042v10.085h2.921V.194h-4.367l-3.115 9.752h-.035L69.865.609l-.146-.443-4.395.028zm16.909 0V2.81h4.25v11.566h3.115V2.81h4.257V.194H82.233z" fill="#EDC677"/><path d="M65.324 3.198h-.194v1.419h.194a3.46 3.46 0 012.921 2.076c.19.437.291.908.298 1.384V6.693a3.53 3.53 0 00-.298-1.384 3.461 3.461 0 00-2.92-2.111z" fill="#EDC677"/><path d="M68.252 11.545V8.659a3.115 3.115 0 00-2.92-3.011h-5.94V.194h-3.121v14.182h3.121V8.257h4.845a.886.886 0 01.887.886v5.233h3.128v-2.831z" fill="#EDC677"/></g></g><defs><clipPath id="clip0_54_24777"><path fill="#fff" d="M0 0h151v48H0z"/></clipPath><clipPath id="clip1_54_24777"><path fill="#fff" d="M0 0h151.42v48H0z"/></clipPath></defs></svg>