<svg width="20" height="20" fill="none" xmlns="http://www.w3.org/2000/svg"><path fill-rule="evenodd" clip-rule="evenodd" d="M19.166 2.222H.834c-.5 0-.833-.444-.833-1.11C0 .443.333 0 .833 0h18.333c.5 0 .834.444.834 1.111s-.334 1.111-.834 1.111zm0 8.889H.834C.333 11.111 0 10.666 0 10c0-.667.333-1.111.833-1.111h18.333c.5 0 .834.444.834 1.11 0 .667-.334 1.112-.834 1.112zM.834 20h18.334c.5 0 .833-.444.833-1.111s-.334-1.111-.834-1.111H.834c-.5 0-.833.444-.833 1.11C0 19.557.333 20 .833 20z" fill="#068B78"/></svg>