<svg width="12" height="12" fill="none" xmlns="http://www.w3.org/2000/svg"><path fill-rule="evenodd" clip-rule="evenodd" d="M.5 1.5A.5.5 0 011 1h3a2.5 2.5 0 012.5 2.5v7a.5.5 0 01-1 0 1 1 0 00-1-1H1A.5.5 0 01.5 9V1.5zm5 7.268V3.5A1.5 1.5 0 004 2H1.5v6.5h3a2 2 0 011 .268z" fill="#068B78"/><path fill-rule="evenodd" clip-rule="evenodd" d="M6.232 1.732A2.5 2.5 0 018 1h3a.5.5 0 01.5.5V9a.5.5 0 01-.5.5H7.5a1 1 0 00-1 1 .5.5 0 01-1 0v-7a2.5 2.5 0 01.732-1.768zM6.5 8.768a2 2 0 011-.268h3V2H8a1.5 1.5 0 00-1.5 1.5v5.268z" fill="#068B78"/></svg>