<svg width="16" height="17" fill="none" xmlns="http://www.w3.org/2000/svg"><g clip-path="url(#clip0_1201_30294)"><path d="M15.848 13.358l-3.2-12.113c-.054-.219-.3-.356-.546-.3l-.41.108c-.22.055-.329.247-.329.465-.3.192-1.75.575-2.133.575a.426.426 0 00-.492-.247l-.3.082v-.136c0-.465-.41-.875-1.094-.875H.78c-.273 0-.656.41-.656.875v12.25c0 .492.383.875.656.875h6.563c.683 0 1.093-.383 1.093-.875V4.089L11.2 14.616c.055.219.301.355.547.3l.41-.109c.219-.054.328-.246.328-.465.301-.19 1.75-.574 2.133-.574a.424.424 0 00.492.246l.438-.109a.467.467 0 00.3-.547zm-12.223.246H1.437v-1.312h2.188v1.312zm0-2.625H1.437V4.854h2.188v6.125zm0-7.437H1.437V2.229h2.188v1.313zm3.5 10.062H4.937v-1.312h2.188v1.312zm0-2.625H4.937V4.854h2.188v6.125zm0-7.437H4.937V2.229h2.188v1.313zm5.059 9.734L9.53 3.16c.465-.055 1.668-.356 2.133-.574l2.652 10.117c-.464.055-1.668.355-2.132.574z" fill="#555"/></g><defs><clipPath id="clip0_1201_30294"><path fill="#fff" transform="translate(0 .5)" d="M0 0h16v16H0z"/></clipPath></defs></svg>