<svg width="20" height="20" fill="none" xmlns="http://www.w3.org/2000/svg"><path d="M0 1.781c0-.328.266-.593.594-.593h1.781c.272 0 .51.185.576.45l.481 1.925H17.22a.594.594 0 01.583.703l-1.78 9.5a.594.594 0 01-.584.484H4.75a.594.594 0 01-.584-.484L2.388 4.283l-.477-1.908H.594A.594.594 0 010 1.781zM5.938 14.25a2.375 2.375 0 100 4.75 2.375 2.375 0 000-4.75zm8.312 0a2.375 2.375 0 100 4.75 2.375 2.375 0 000-4.75zm-8.313 1.188a1.188 1.188 0 110 2.375 1.188 1.188 0 010-2.375zm8.313 0a1.188 1.188 0 110 2.375 1.188 1.188 0 010-2.375z" fill="#068B78"/></svg>