<svg width="51" height="51" fill="none" xmlns="http://www.w3.org/2000/svg"><path fill-rule="evenodd" clip-rule="evenodd" d="M25.5 0C11.134 0 0 10.523 0 24.736c0 7.434 3.048 13.858 8.01 18.296.415.375.666.893.687 1.453l.138 4.535a2.043 2.043 0 002.863 1.806l5.06-2.232c.43-.19.907-.226 1.359-.102 2.324.641 4.802.98 7.383.98 14.366 0 25.5-10.524 25.5-24.736C51 10.523 39.866 0 25.5 0zM10.189 32.223l7.491-11.867a3.832 3.832 0 015.532-1.02l5.957 4.463c.55.41 1.298.405 1.842-.005l8.046-6.097c1.072-.815 2.478.471 1.755 1.609l-7.487 11.861a3.832 3.832 0 01-5.531 1.02l-5.957-4.463a1.533 1.533 0 00-1.843.005l-8.05 6.102c-1.073.815-2.479-.47-1.755-1.608z" fill="#06A68F"/></svg>