<svg width="51" height="51" fill="none" xmlns="http://www.w3.org/2000/svg"><path fill-rule="evenodd" clip-rule="evenodd" d="M25.5 0C11.417 0 0 11.417 0 25.5S11.417 51 25.5 51 51 39.583 51 25.5 39.583 0 25.5 0zm2.021 22.203v.68a5.004 5.004 0 00-2.95-.957c-2.763 0-5.003 2.225-5.003 4.97 0 2.744 2.24 4.97 5.002 4.97a5.005 5.005 0 002.95-.958h.001c.003.48.395.867.878.867h1.173v-9.572h-2.05zm-8.484-2.768v-.31H8.793v2.181h7.106l-7.02 8.637c-.211.312-.379.612-.379 1.284v.548h9.659c.484 0 .878-.39.878-.872v-1.164h-7.455l6.584-8.216c.092-.118.285-.335.368-.429l.001-.001.046-.052c.378-.555.456-1.027.456-1.606zM31.328 31.05c0 .4.328.726.732.726h1.463v-12.65h-2.195V31.05zm13.722-4.18c0-2.761-2.254-5.003-5.036-5.003-2.781 0-5.035 2.242-5.035 5.003 0 2.764 2.254 5.006 5.035 5.006 2.782 0 5.036-2.242 5.036-5.006zm-17.537.027a2.933 2.933 0 01-2.943 2.924 2.933 2.933 0 01-2.943-2.924c0-1.613 1.318-2.922 2.943-2.922 1.626 0 2.943 1.31 2.943 2.922zm15.463-.027a2.954 2.954 0 01-2.962 2.946 2.953 2.953 0 01-2.962-2.946 2.952 2.952 0 012.962-2.943 2.954 2.954 0 012.962 2.943z" fill="#06A68F"/></svg>