<svg width="16" height="16" fill="none" xmlns="http://www.w3.org/2000/svg"><g clip-path="url(#clip0_1155_6018)"><path d="M15.041 10.76l-2.469-1.093 2.469-1.063c.406-.156.563-.594.406-1-.156-.375-.625-.531-1-.375l-6.781 2.969-5.781-2.531 5.344-2.282c.375-.187.562-.625.375-1a.748.748 0 00-.97-.406L.26 6.76a.984.984 0 00-.594.907c0 .406.219.78.594.937l2.469 1.063-2.47 1.093c-.374.157-.593.532-.593.938 0 .375.219.75.594.906l6.812 2.969c.188.062.375.125.563.125.219-.031.406-.063.594-.125l6.812-2.969a.984.984 0 00.594-.906.95.95 0 00-.594-.938zm-7.375 3.438l-5.781-2.531 2.75-1.157 2.437 1.063a1.82 1.82 0 001.157 0l2.437-1.063 2.75 1.188-5.75 2.5zm7.5-11.781h-2.25V.167c0-.25-.25-.5-.5-.5h-.5c-.281 0-.5.25-.5.5v2.25h-2.25c-.281 0-.5.25-.5.5v.5c0 .28.219.5.5.5h2.25v2.25c0 .28.219.5.5.5h.5c.25 0 .5-.22.5-.5v-2.25h2.25c.25 0 .5-.22.5-.5v-.5c0-.25-.25-.5-.5-.5z" fill="#fff"/></g><defs><clipPath id="clip0_1155_6018"><path fill="#fff" d="M0 0h16v16H0z"/></clipPath></defs></svg>