<svg width="17" height="16" fill="none" xmlns="http://www.w3.org/2000/svg"><path d="M12.541 5.667h-.438a.45.45 0 00-.437.437v1.313c0 2.05-1.777 3.691-3.855 3.5-1.832-.192-3.145-1.805-3.145-3.637V6.104a.47.47 0 00-.437-.437H3.79a.45.45 0 00-.437.437v1.121c0 2.434 1.722 4.621 4.156 4.95v.93h-1.53a.45.45 0 00-.438.437v.437c0 .246.191.438.438.438h4.375a.45.45 0 00.437-.438v-.437a.47.47 0 00-.438-.438h-1.53v-.902c2.323-.328 4.155-2.352 4.155-4.785V6.104a.47.47 0 00-.437-.437zm-4.375 4.375a2.608 2.608 0 002.625-2.625V3.042A2.626 2.626 0 008.166.417a2.608 2.608 0 00-2.625 2.625v4.375a2.591 2.591 0 002.625 2.625zm-1.312-7c0-.711.574-1.313 1.312-1.313.711 0 1.313.602 1.313 1.313v4.375c0 .738-.602 1.312-1.313 1.312a1.296 1.296 0 01-1.312-1.312V3.042z" fill="#068B78"/></svg>