<svg width="12" height="13" fill="none" xmlns="http://www.w3.org/2000/svg"><g clip-path="url(#clip0_1119_6334)"><path d="M11.672 2.825H2.219c-.451 0-.838.3-.989.688H.328a.51.51 0 00-.516.515v5.844c0 .666.538 1.203 1.204 1.203h10.656c.28 0 .515-.215.515-.515V3.34a.523.523 0 00-.515-.515zM.844 9.872V4.544h.344v5.328a.17.17 0 01-.172.172c-.108 0-.172-.065-.172-.172zm10.312.172H2.197c0-.043.022-.108.022-.172V3.856h8.937v6.188zM3.508 7.466H6.43a.261.261 0 00.258-.258V5.145a.277.277 0 00-.258-.257H3.508a.261.261 0 00-.258.257v2.063c0 .15.107.258.258.258zm.601-1.719h1.72v.86h-1.72v-.86zM3.25 8.755c0 .15.107.258.258.258H6.43a.261.261 0 00.258-.258v-.516a.277.277 0 00-.258-.258H3.508a.261.261 0 00-.258.258v.516zm4.125 0c0 .15.107.258.258.258h2.234a.261.261 0 00.258-.258v-.516a.277.277 0 00-.258-.258H7.633a.261.261 0 00-.258.258v.516zm0-3.094c0 .15.107.258.258.258h2.234a.261.261 0 00.258-.258v-.516a.277.277 0 00-.258-.257H7.633a.261.261 0 00-.258.257v.516zm0 1.547c0 .15.107.258.258.258h2.234a.261.261 0 00.258-.258v-.516a.277.277 0 00-.258-.257H7.633a.261.261 0 00-.258.257v.516z" fill="#068B78"/></g><defs><clipPath id="clip0_1119_6334"><path fill="#fff" transform="translate(0 .075)" d="M0 0h12v12H0z"/></clipPath></defs></svg>